<svg xmlns="http://www.w3.org/2000/svg" xmlns:xlink="http://www.w3.org/1999/xlink" width="500" zoomAndPan="magnify" viewBox="0 0 375 74.999997" height="100" preserveAspectRatio="xMidYMid meet" version="1.2"><defs/><g id="7e017034a3"><g style="fill:#3949ab;fill-opacity:1;"><g transform="translate(3.806374, 60.572809)"><path style="stroke:none" d="M 24.40625 0.640625 C 20.289062 0.640625 16.664062 -0.210938 13.53125 -1.921875 C 10.394531 -3.628906 7.941406 -6.195312 6.171875 -9.625 C 4.398438 -13.0625 3.515625 -17.300781 3.515625 -22.34375 C 3.515625 -27.375 4.398438 -31.601562 6.171875 -35.03125 C 7.941406 -38.46875 10.394531 -41.039062 13.53125 -42.75 C 16.664062 -44.457031 20.289062 -45.3125 24.40625 -45.3125 C 28.707031 -45.3125 32.359375 -44.46875 35.359375 -42.78125 C 38.367188 -41.101562 40.515625 -38.546875 41.796875 -35.109375 L 35.359375 -31.171875 L 34.59375 -31.203125 C 33.632812 -33.523438 32.332031 -35.1875 30.6875 -36.1875 C 29.050781 -37.195312 26.957031 -37.703125 24.40625 -37.703125 C 20.707031 -37.703125 17.816406 -36.472656 15.734375 -34.015625 C 13.660156 -31.566406 12.625 -27.675781 12.625 -22.34375 C 12.625 -17.019531 13.660156 -13.128906 15.734375 -10.671875 C 17.816406 -8.222656 20.707031 -7 24.40625 -7 C 30.21875 -7 33.773438 -9.820312 35.078125 -15.46875 L 35.84375 -15.46875 L 42.34375 -12.0625 C 41.125 -7.832031 39.035156 -4.65625 36.078125 -2.53125 C 33.128906 -0.414062 29.238281 0.640625 24.40625 0.640625 Z M 24.40625 0.640625 "/></g></g><g style="fill:#3949ab;fill-opacity:1;"><g transform="translate(47.624615, 60.572809)"><path style="stroke:none" d="M 19.59375 0.640625 C 16.289062 0.640625 13.390625 -0.0351562 10.890625 -1.390625 C 8.398438 -2.742188 6.46875 -4.726562 5.09375 -7.34375 C 3.71875 -9.96875 3.03125 -13.132812 3.03125 -16.84375 C 3.03125 -20.539062 3.71875 -23.703125 5.09375 -26.328125 C 6.46875 -28.960938 8.398438 -30.957031 10.890625 -32.3125 C 13.390625 -33.664062 16.289062 -34.34375 19.59375 -34.34375 C 22.882812 -34.34375 25.773438 -33.664062 28.265625 -32.3125 C 30.765625 -30.957031 32.707031 -28.960938 34.09375 -26.328125 C 35.476562 -23.703125 36.171875 -20.539062 36.171875 -16.84375 C 36.171875 -13.132812 35.476562 -9.96875 34.09375 -7.34375 C 32.707031 -4.726562 30.765625 -2.742188 28.265625 -1.390625 C 25.773438 -0.0351562 22.882812 0.640625 19.59375 0.640625 Z M 19.59375 -6.53125 C 24.820312 -6.53125 27.4375 -9.96875 27.4375 -16.84375 C 27.4375 -20.40625 26.765625 -23.015625 25.421875 -24.671875 C 24.078125 -26.328125 22.132812 -27.15625 19.59375 -27.15625 C 14.351562 -27.15625 11.734375 -23.71875 11.734375 -16.84375 C 11.734375 -9.96875 14.351562 -6.53125 19.59375 -6.53125 Z M 19.59375 -6.53125 "/></g></g><g style="fill:#3949ab;fill-opacity:1;"><g transform="translate(86.798244, 60.572809)"><path style="stroke:none" d="M 34.125 -44.671875 L 34.125 -37.28125 L 14.640625 -37.28125 L 14.640625 -25.453125 L 32.328125 -25.453125 L 32.328125 -18.15625 L 14.640625 -18.15625 L 14.640625 0 L 5.8125 0 L 5.8125 -44.671875 Z M 34.125 -44.671875 "/></g></g><g style="fill:#3949ab;fill-opacity:1;"><g transform="translate(121.968902, 60.572809)"><path style="stroke:none" d="M 19.59375 0.640625 C 16.289062 0.640625 13.390625 -0.0351562 10.890625 -1.390625 C 8.398438 -2.742188 6.46875 -4.726562 5.09375 -7.34375 C 3.71875 -9.96875 3.03125 -13.132812 3.03125 -16.84375 C 3.03125 -20.539062 3.71875 -23.703125 5.09375 -26.328125 C 6.46875 -28.960938 8.398438 -30.957031 10.890625 -32.3125 C 13.390625 -33.664062 16.289062 -34.34375 19.59375 -34.34375 C 22.882812 -34.34375 25.773438 -33.664062 28.265625 -32.3125 C 30.765625 -30.957031 32.707031 -28.960938 34.09375 -26.328125 C 35.476562 -23.703125 36.171875 -20.539062 36.171875 -16.84375 C 36.171875 -13.132812 35.476562 -9.96875 34.09375 -7.34375 C 32.707031 -4.726562 30.765625 -2.742188 28.265625 -1.390625 C 25.773438 -0.0351562 22.882812 0.640625 19.59375 0.640625 Z M 19.59375 -6.53125 C 24.820312 -6.53125 27.4375 -9.96875 27.4375 -16.84375 C 27.4375 -20.40625 26.765625 -23.015625 25.421875 -24.671875 C 24.078125 -26.328125 22.132812 -27.15625 19.59375 -27.15625 C 14.351562 -27.15625 11.734375 -23.71875 11.734375 -16.84375 C 11.734375 -9.96875 14.351562 -6.53125 19.59375 -6.53125 Z M 19.59375 -6.53125 "/></g></g><g style="fill:#3949ab;fill-opacity:1;"><g transform="translate(161.142531, 60.572809)"><path style="stroke:none" d="M 15.4375 0.640625 C 11.644531 0.640625 8.847656 -0.390625 7.046875 -2.453125 C 5.242188 -4.523438 4.34375 -7.492188 4.34375 -11.359375 L 4.34375 -33.703125 L 12.796875 -33.703125 L 12.796875 -12.4375 C 12.796875 -10.375 13.238281 -8.867188 14.125 -7.921875 C 15.019531 -6.984375 16.390625 -6.515625 18.234375 -6.515625 C 20.578125 -6.515625 22.398438 -7.28125 23.703125 -8.8125 C 25.015625 -10.351562 25.671875 -12.773438 25.671875 -16.078125 L 25.671875 -33.703125 L 34.125 -33.703125 L 34.125 0 L 26 0 L 26 -4.953125 L 25.359375 -5.109375 C 24.273438 -3.171875 22.953125 -1.726562 21.390625 -0.78125 C 19.835938 0.164062 17.851562 0.640625 15.4375 0.640625 Z M 15.4375 0.640625 "/></g></g><g style="fill:#3949ab;fill-opacity:1;"><g transform="translate(200.13282, 60.572809)"><path style="stroke:none" d="M 4.859375 0 L 4.859375 -33.703125 L 12.984375 -33.703125 L 12.984375 -28.75 L 13.625 -28.59375 C 15.726562 -32.425781 19.128906 -34.34375 23.828125 -34.34375 C 27.722656 -34.34375 30.582031 -33.28125 32.40625 -31.15625 C 34.226562 -29.039062 35.140625 -25.957031 35.140625 -21.90625 L 35.140625 0 L 26.671875 0 L 26.671875 -20.875 C 26.671875 -23.113281 26.222656 -24.722656 25.328125 -25.703125 C 24.429688 -26.691406 22.992188 -27.1875 21.015625 -27.1875 C 18.597656 -27.1875 16.710938 -26.398438 15.359375 -24.828125 C 14.003906 -23.265625 13.328125 -20.804688 13.328125 -17.453125 L 13.328125 0 Z M 4.859375 0 "/></g></g><g style="fill:#3949ab;fill-opacity:1;"><g transform="translate(239.612003, 60.572809)"><path style="stroke:none" d="M 16.65625 0.640625 C 13.988281 0.640625 11.628906 -0.00390625 9.578125 -1.296875 C 7.535156 -2.585938 5.929688 -4.539062 4.765625 -7.15625 C 3.609375 -9.78125 3.03125 -13.007812 3.03125 -16.84375 C 3.03125 -20.6875 3.625 -23.914062 4.8125 -26.53125 C 6 -29.15625 7.644531 -31.113281 9.75 -32.40625 C 11.863281 -33.695312 14.304688 -34.34375 17.078125 -34.34375 C 19.179688 -34.34375 21 -33.976562 22.53125 -33.25 C 24.070312 -32.53125 25.375 -31.410156 26.4375 -29.890625 L 27.078125 -30.03125 L 27.078125 -47.234375 L 35.53125 -47.234375 L 35.53125 0 L 27.078125 0 L 27.078125 -4.375 L 26.4375 -4.484375 C 25.5 -2.898438 24.210938 -1.648438 22.578125 -0.734375 C 20.953125 0.179688 18.976562 0.640625 16.65625 0.640625 Z M 19.40625 -6.53125 C 21.789062 -6.53125 23.675781 -7.378906 25.0625 -9.078125 C 26.445312 -10.785156 27.140625 -13.375 27.140625 -16.84375 C 27.140625 -20.300781 26.445312 -22.882812 25.0625 -24.59375 C 23.675781 -26.300781 21.789062 -27.15625 19.40625 -27.15625 C 16.914062 -27.15625 15.015625 -26.328125 13.703125 -24.671875 C 12.390625 -23.015625 11.734375 -20.40625 11.734375 -16.84375 C 11.734375 -13.289062 12.390625 -10.679688 13.703125 -9.015625 C 15.015625 -7.359375 16.914062 -6.53125 19.40625 -6.53125 Z M 19.40625 -6.53125 "/></g></g><g style="fill:#3949ab;fill-opacity:1;"><g transform="translate(280.007922, 60.572809)"><path style="stroke:none" d="M 4.859375 0 L 4.859375 -33.703125 L 13.078125 -33.703125 L 13.078125 -28.6875 L 13.71875 -28.5625 C 14.53125 -30.4375 15.597656 -31.8125 16.921875 -32.6875 C 18.242188 -33.570312 19.851562 -34.015625 21.75 -34.015625 C 23.664062 -34.015625 25.125 -33.6875 26.125 -33.03125 L 24.6875 -25.734375 L 24.046875 -25.609375 C 23.492188 -25.828125 22.960938 -25.988281 22.453125 -26.09375 C 21.941406 -26.195312 21.320312 -26.25 20.59375 -26.25 C 18.226562 -26.25 16.425781 -25.414062 15.1875 -23.75 C 13.945312 -22.09375 13.328125 -19.429688 13.328125 -15.765625 L 13.328125 0 Z M 4.859375 0 "/></g></g><g style="fill:#3949ab;fill-opacity:1;"><g transform="translate(300.236111, 60.572809)"><path style="stroke:none" d="M 8.609375 0.28125 C 7.535156 0.28125 6.582031 0.0625 5.75 -0.375 C 4.925781 -0.8125 4.296875 -1.414062 3.859375 -2.1875 C 3.421875 -2.96875 3.203125 -3.847656 3.203125 -4.828125 C 3.203125 -5.804688 3.421875 -6.679688 3.859375 -7.453125 C 4.296875 -8.222656 4.925781 -8.832031 5.75 -9.28125 C 6.582031 -9.738281 7.535156 -9.96875 8.609375 -9.96875 C 9.710938 -9.96875 10.675781 -9.742188 11.5 -9.296875 C 12.320312 -8.859375 12.953125 -8.253906 13.390625 -7.484375 C 13.835938 -6.710938 14.0625 -5.835938 14.0625 -4.859375 C 14.0625 -3.367188 13.566406 -2.140625 12.578125 -1.171875 C 11.585938 -0.203125 10.265625 0.28125 8.609375 0.28125 Z M 8.609375 0.28125 "/></g></g><g style="fill:#3949ab;fill-opacity:1;"><g transform="translate(317.500632, 60.572809)"><path style="stroke:none" d="M 13.140625 0.640625 C 10.984375 0.640625 9.109375 0.242188 7.515625 -0.546875 C 5.929688 -1.335938 4.707031 -2.503906 3.84375 -4.046875 C 2.988281 -5.585938 2.5625 -7.4375 2.5625 -9.59375 C 2.5625 -11.59375 2.988281 -13.269531 3.84375 -14.625 C 4.707031 -15.976562 6.035156 -17.085938 7.828125 -17.953125 C 9.617188 -18.816406 11.957031 -19.484375 14.84375 -19.953125 C 16.863281 -20.273438 18.394531 -20.628906 19.4375 -21.015625 C 20.488281 -21.410156 21.195312 -21.847656 21.5625 -22.328125 C 21.9375 -22.816406 22.125 -23.441406 22.125 -24.203125 C 22.125 -25.273438 21.742188 -26.097656 20.984375 -26.671875 C 20.234375 -27.242188 18.984375 -27.53125 17.234375 -27.53125 C 15.359375 -27.53125 13.570312 -27.113281 11.875 -26.28125 C 10.1875 -25.445312 8.722656 -24.347656 7.484375 -22.984375 L 6.875 -22.984375 L 3.328125 -28.328125 C 5.035156 -30.222656 7.125 -31.695312 9.59375 -32.75 C 12.0625 -33.8125 14.75 -34.34375 17.65625 -34.34375 C 22.125 -34.34375 25.351562 -33.394531 27.34375 -31.5 C 29.34375 -29.601562 30.34375 -26.914062 30.34375 -23.4375 L 30.34375 -8.796875 C 30.34375 -7.285156 31.003906 -6.53125 32.328125 -6.53125 C 32.835938 -6.53125 33.335938 -6.625 33.828125 -6.8125 L 34.25 -6.6875 L 34.859375 -0.796875 C 34.390625 -0.492188 33.738281 -0.242188 32.90625 -0.046875 C 32.070312 0.148438 31.15625 0.25 30.15625 0.25 C 28.144531 0.25 26.570312 -0.132812 25.4375 -0.90625 C 24.300781 -1.6875 23.492188 -2.898438 23.015625 -4.546875 L 22.359375 -4.609375 C 20.710938 -1.109375 17.640625 0.640625 13.140625 0.640625 Z M 15.828125 -5.6875 C 17.785156 -5.6875 19.347656 -6.34375 20.515625 -7.65625 C 21.691406 -8.96875 22.28125 -10.796875 22.28125 -13.140625 L 22.28125 -16.5625 L 21.6875 -16.6875 C 21.1875 -16.28125 20.519531 -15.9375 19.6875 -15.65625 C 18.863281 -15.382812 17.679688 -15.113281 16.140625 -14.84375 C 14.304688 -14.539062 12.984375 -14.015625 12.171875 -13.265625 C 11.367188 -12.523438 10.96875 -11.472656 10.96875 -10.109375 C 10.96875 -8.660156 11.394531 -7.5625 12.25 -6.8125 C 13.101562 -6.0625 14.296875 -5.6875 15.828125 -5.6875 Z M 15.828125 -5.6875 "/></g></g><g style="fill:#3949ab;fill-opacity:1;"><g transform="translate(353.038006, 60.572809)"><path style="stroke:none" d="M 9.078125 -37.734375 C 7.546875 -37.734375 6.300781 -38.195312 5.34375 -39.125 C 4.382812 -40.050781 3.90625 -41.25 3.90625 -42.71875 C 3.90625 -44.164062 4.382812 -45.351562 5.34375 -46.28125 C 6.300781 -47.207031 7.546875 -47.671875 9.078125 -47.671875 C 10.097656 -47.671875 11.003906 -47.457031 11.796875 -47.03125 C 12.585938 -46.601562 13.203125 -46.015625 13.640625 -45.265625 C 14.078125 -44.523438 14.296875 -43.675781 14.296875 -42.71875 C 14.296875 -41.757812 14.078125 -40.898438 13.640625 -40.140625 C 13.203125 -39.390625 12.585938 -38.800781 11.796875 -38.375 C 11.003906 -37.945312 10.097656 -37.734375 9.078125 -37.734375 Z M 4.859375 0 L 4.859375 -33.703125 L 13.328125 -33.703125 L 13.328125 0 Z M 4.859375 0 "/></g></g></g></svg>